<?xml version="1.0" encoding="UTF-8" standalone="no"?>
<!-- Created with Inkscape (http://www.inkscape.org/) -->

<svg
   width="122.25586"
   height="56.203247"
   viewBox="0 0 122.25586 56.203249"
   version="1.1"
   id="svg1"
   xml:space="preserve"
   xmlns="http://www.w3.org/2000/svg"
   xmlns:svg="http://www.w3.org/2000/svg"><defs
     id="defs1" /><g
     id="layer3"
     style="display:inline"
     transform="translate(-356.41595,-1029.5622)"><path
       style="font-size:57.0231px;font-family:Karumbi;-inkscape-font-specification:Karumbi;fill:#435e7b;stroke-width:7.26419;stroke-linecap:round;stroke-linejoin:round"
       d="m 457.01581,1033.5968 q -0.8645,-1.424 1.34474,-2.2942 2.01714,-0.6328 2.97767,-0.9493 1.05658,-0.3955 1.92108,-0.5537 0.86449,-0.2374 1.92107,-0.2374 h 3.07372 q 4.61058,0 7.78035,4.1137 2.97768,3.8763 2.59346,7.357 -0.28816,3.4808 -1.72897,6.8033 -1.44082,3.2435 -3.93821,5.775 -5.76321,5.6166 -14.60017,4.8256 -3.55398,-0.3165 -5.76321,-1.8195 -2.11319,-1.5031 -2.97768,-3.639 -0.86448,-2.215 -0.67237,-4.9047 0.19209,-2.6897 1.2487,-5.3794 2.30529,-5.6958 6.81982,-9.0974 z m 10.46986,-0.8702 q 0.48026,0.8702 -0.096,1.5821 -0.57632,0.712 -1.63291,0.5538 -0.96053,-0.1582 -1.53686,-0.3164 -0.57633,-0.1583 -1.24871,-0.3165 -4.5145,1.6613 -7.78035,7.0407 -3.26583,5.3002 -2.30527,9.4138 0.48025,2.0569 2.30527,3.4017 1.92108,1.3448 5.57113,1.3448 l 0.096,-0.079 q 1.0566,-0.2373 2.11318,-0.3164 1.05661,-0.1582 3.07372,-0.9493 2.01714,-0.7911 4.41847,-3.0061 2.4974,-2.2151 3.65005,-4.9047 2.68951,-6.0914 -1.44081,-10.8379 -1.82502,-2.2941 -4.89874,-2.6105 z m -5.95535,22.6249 q -0.1921,0 -0.38421,0.079 0.19211,-0.079 0.38421,-0.079 z"
       id="path1"
       aria-label="O" /><g
       id="g13"
       style="font-size:51.7493px;-inkscape-font-specification:sans-serif;fill:#767442;stroke-width:4.31245;stroke-linecap:round;stroke-linejoin:round"
       aria-label="Do"
       transform="translate(279.02105,438.59695)"><path
         style="font-family:Karumbi;-inkscape-font-specification:Karumbi;stroke-width:6.59237"
         d="m 82.378731,616.61958 q 0,-0.0792 -0.158217,-0.0792 0,0 0.07911,-0.079 0,-0.47466 0.07911,-0.79108 1.582166,-4.03453 2.61057,-7.98994 1.028406,-4.03453 1.661281,-6.40777 0.632859,-2.45236 0.870187,-3.63897 0.237328,-1.18663 0.55375,-2.45236 0.870202,-3.00613 2.452358,-3.7972 1.582172,-0.87019 2.215031,1.10751 v 0.31644 q 0.395547,-0.71198 1.582171,-0.87019 2.37325,-0.079 4.667389,-0.15822 2.373249,-0.0792 5.142029,0.39553 2.7688,0.39555 4.82561,1.97772 2.05682,1.50305 2.8479,3.71808 1.74039,4.50917 -1.50306,10.04675 -4.35096,7.35707 -16.217196,9.96765 -3.243436,0.71197 -5.379358,1.02841 -2.135921,0.31642 -3.401655,0.55375 -1.186624,0.23732 -2.452357,0.39554 -3.006114,0.31644 -4.746495,-0.71198 -0.395542,-0.39553 -0.47465,-0.71197 -0.07911,-0.23733 -0.237325,-0.71197 0.07911,-0.15822 0.07911,-0.47465 0.316433,-1.34485 1.344841,-1.42396 1.107515,-0.079 1.582165,0.7911 0.474648,0.079 0.949298,0 0.553758,0 1.028406,0 z m 11.86624,-21.51745 q -1.265734,-0.079 -1.582171,-1.10752 -0.395532,1.58216 -1.423938,2.29414 -0.395546,1.26574 -0.711984,2.61057 -0.316437,1.26573 -0.949296,3.48076 -0.55375,2.13592 -1.582171,6.09134 -0.949297,3.8763 -2.452344,7.6735 7.515279,-0.87019 10.758716,-1.89859 6.565987,-2.05682 9.888527,-6.01224 3.87632,-4.50917 2.84791,-8.7019 -0.47466,-1.89859 -2.29414,-3.08522 -1.8195,-1.26573 -4.35095,-1.42395 -2.610583,-0.15822 -8.148159,0.079 z"
         id="path2" /><path
         style="fill:#464527;stroke-width:6.59237"
         d="m 111.7803,613.35463 q 0.47464,-1.26573 1.10752,-2.8479 0.47464,-1.66127 1.26573,-3.00611 1.81948,-3.55988 3.79719,-5.06292 l 0.23732,-0.47466 q 4.19274,-3.63898 8.30638,-2.68969 1.89859,0.47466 3.32254,1.8195 1.42394,1.26574 2.05681,3.08522 1.58216,4.27184 -1.10751,9.09745 -1.74039,3.24344 -5.85401,5.22114 -3.00611,1.50306 -7.6735,2.05683 -2.61058,0.39553 -4.50917,-2.13594 -1.89859,-2.53145 -0.9493,-5.06292 z m 13.29018,1.34484 q 1.81949,-1.26573 3.00611,-2.92701 1.18663,-1.74038 1.18663,-4.43006 0,-2.68967 -1.42396,-4.03452 -1.42393,-1.34484 -3.48074,-1.0284 -0.31644,0.94929 -1.34485,1.18662 -3.00612,0.39553 -5.45847,4.19274 -2.13593,3.32254 -2.68968,6.40776 -0.15822,0.63287 0.079,1.26573 0.31644,0.55377 0.47464,1.18663 0.47466,0.15822 0.94931,0.47465 0.47464,0.23732 1.58216,0.31643 1.18662,0.079 3.24344,-0.63286 2.13592,-0.71197 3.87631,-1.97771 z"
         id="path13" /></g><path
       style="font-size:51.7102px;font-family:Karumbi;-inkscape-font-specification:Karumbi;fill:#5e2223;stroke-width:6.58735;stroke-linecap:round;stroke-linejoin:round"
       d="m 406.62143,1065.5136 q 0.86954,0.6324 0.71145,2.2924 -0.079,1.581 -1.42289,3.0039 -1.26477,1.4228 -3.08289,2.2924 -2.52954,1.1857 -7.66769,1.8971 -4.26863,4.822 -2.13432,6.6401 1.97622,1.8181 8.77438,0.8696 4.90101,-0.6324 9.01154,-1.9763 1.42287,-0.1581 1.81811,1.1067 0.39524,1.1857 -0.94858,1.8972 -9.48583,2.6876 -15.88874,2.1343 -4.03148,-0.3952 -5.37531,-2.2924 -1.26477,-1.8972 -0.71143,-4.5058 0.55333,-2.6086 2.52955,-5.3753 1.97621,-2.7667 4.50576,-4.901 2.52956,-2.1343 5.2172,-3.0829 2.68765,-1.0276 4.66386,0 z m -2.84574,2.7667 q -1.42288,0.3162 -4.66386,2.9248 3.16193,-0.9486 4.66386,-2.9248 z"
       id="path14"
       aria-label="e" /><path
       style="font-size:54.4528px;font-family:Karumbi;-inkscape-font-specification:Karumbi;fill:#435e7b;stroke-width:6.93675;stroke-linecap:round;stroke-linejoin:round"
       d="m 378.97448,1062.8031 q 1.54471,0.5338 1.54471,1.6014 0,1.2201 -1.63557,1.4489 -2.6351,0.1525 -4.54326,0.2288 -1.90817,0 -3.72548,0.305 -3.9072,0.61 -7.63267,2.5165 0,0.1525 -0.0908,0.2287 2.6351,1.3726 6.72402,2.364 4.08893,0.9913 6.36057,1.5251 2.27162,0.4575 3.72548,0.9151 1.45384,0.4575 2.63508,0.9151 1.09038,0.4575 2.08989,1.1438 2.45337,1.6014 1.99905,3.4316 -1.27213,4.4228 -9.35912,5.7192 -4.72499,0.7626 -12.63027,0.2288 -0.54518,-0.076 -1.5447,-0.076 -0.99951,0 -2.08989,-0.1526 -2.81683,-0.305 -3.36202,-1.1438 -0.54519,-1.3726 0.0908,-1.8302 0.72692,-0.5338 1.36297,-0.5338 0.63605,0 1.18124,0.3051 2.27163,0 5.63364,0.305 3.36202,0.2287 6.72403,0.305 8.17786,-0.076 10.1769,-3.3553 -1.09039,-1.5251 -9.99517,-3.9653 -10.08603,-2.669 -12.72113,-4.1942 -0.99951,-0.8388 -0.81778,-1.5251 0.18173,-0.6863 0.27259,-1.1438 0.18173,-0.9914 0.54519,-1.4489 3.90721,-3.5841 14.17497,-3.8891 2.6351,-0.076 4.90672,-0.2288 z"
       id="path15"
       aria-label="S" /><path
       style="font-size:54.3723px;font-family:Karumbi;-inkscape-font-specification:Karumbi;fill:#767442;stroke-width:6.92649;stroke-linecap:round;stroke-linejoin:round"
       d="m 438.87776,1062.7526 q 1.54015,0.5338 1.54015,1.6014 0,1.2201 -1.63074,1.4489 -2.6273,0.1526 -4.52984,0.2288 -1.90253,0 -3.71447,0.305 -3.89566,0.6101 -7.61011,2.5165 0,0.1525 -0.0906,0.2287 2.6273,1.3727 6.70416,2.364 4.07684,0.9913 6.34177,1.5251 2.26492,0.4576 3.71445,0.9151 1.44956,0.4576 2.62732,0.9151 1.08717,0.4575 2.08371,1.1438 2.44611,1.6014 1.99313,3.4316 -1.26835,4.4229 -9.33145,5.7192 -4.71103,0.7626 -12.59295,0.2288 -0.54358,-0.076 -1.54014,-0.076 -0.99657,0 -2.08374,-0.1526 -2.80849,-0.305 -3.35206,-1.1438 -0.54359,-1.3726 0.0906,-1.8302 0.72478,-0.5338 1.35897,-0.5338 0.63416,0 1.17776,0.3051 2.26489,0 5.61699,0.305 3.35206,0.2288 6.70414,0.305 8.15372,-0.076 10.14685,-3.3553 -1.08717,-1.5251 -9.96565,-3.9653 -10.05623,-2.669 -12.68354,-4.1941 -0.99655,-0.8389 -0.81537,-1.5252 0.18121,-0.6863 0.2718,-1.1438 0.18118,-0.9913 0.54357,-1.4489 3.89566,-3.5841 14.1331,-3.8891 2.6273,-0.076 4.89221,-0.2288 z"
       id="path16"
       aria-label="S" /><path
       style="font-size:25.3991px;font-family:Karumbi;-inkscape-font-specification:Karumbi;fill:#767442;stroke-width:3.23558;stroke-linecap:round;stroke-linejoin:round"
       d="m 462.68979,1041.5286 q -0.23297,-0.66 0.0777,-0.9318 0.31061,-0.3106 0.54357,-0.3106 0.2718,0 0.58241,0.2329 0.81537,1.0095 0.77654,2.252 -0.0388,1.2425 -0.11648,1.9802 -0.0388,0.7377 -0.0777,1.0095 0,0.2329 -0.0388,0.4271 l -0.11649,1.2813 q 1.55308,-2.252 3.92155,-3.6109 2.36845,-1.359 5.31933,-2.485 0.69888,-0.078 0.89301,0.5436 0.19414,0.5824 -0.46592,0.9319 -4.07685,1.553 -5.78525,2.8343 -1.66957,1.2813 -2.64025,2.6791 -0.97068,1.359 -1.55308,3.2615 -0.19414,0.4659 -0.73773,0.6212 h -0.0777 q -0.6989,-0.1165 -0.81539,-0.8153 0.0388,-0.9707 0.23297,-2.485 0.19413,-1.5142 0.34945,-2.9897 0.38827,-3.6497 -0.27179,-4.4263 z"
       id="path17"
       aria-label="r" /><path
       style="font-size:25.1155px;font-family:Karumbi;-inkscape-font-specification:Karumbi;fill:#767442;stroke-width:3.19946;stroke-linecap:round;stroke-linejoin:round"
       d="m 458.63216,1042.9916 q 0.34555,-0.6527 0.92145,-0.4607 0.6143,0.192 0.53751,0.883 -0.57591,2.0733 -0.99824,4.1466 -0.38393,2.0348 -0.95983,4.1081 -0.30716,0.7295 -0.95985,0.5375 -0.6527,-0.192 -0.46073,-0.9982 0.19198,-0.7679 0.38395,-1.5358 0.23036,-0.8063 0.42233,-1.5741 v -0.038 q 0.30714,-1.267 0.49911,-2.534 0.23036,-1.3054 0.6143,-2.534 z m 1.99646,-5.4903 q 0.65271,0.2304 0.65271,0.8063 0,0.5759 -0.69109,0.7295 h -0.15357 q -0.42235,-0.038 -0.6143,-0.2688 -0.15358,-0.2303 -0.15358,-0.5375 0.0384,-0.6527 0.80626,-0.7295 z"
       id="path18"
       aria-label="i" /><path
       style="font-size:51.7102px;font-family:Karumbi;-inkscape-font-specification:Karumbi;fill:#464527;stroke-width:6.58735;stroke-linecap:round;stroke-linejoin:round"
       d="m 468.9645,1064.9646 q 0.86953,0.6324 0.71143,2.2924 -0.079,1.581 -1.42288,3.0039 -1.26477,1.4228 -3.08288,2.2924 -2.52956,1.1857 -7.6677,1.8971 -4.26862,4.822 -2.13432,6.6401 1.97622,1.8181 8.77438,0.8696 4.90102,-0.6324 9.01154,-1.9763 1.42287,-0.1581 1.81811,1.1067 0.39524,1.1857 -0.94858,1.8972 -9.48583,2.6876 -15.88875,2.1343 -4.03147,-0.3953 -5.3753,-2.2924 -1.26477,-1.8972 -0.71144,-4.5058 0.55334,-2.6086 2.52956,-5.3753 1.9762,-2.7667 4.50576,-4.901 2.52956,-2.1343 5.2172,-3.0829 2.68765,-1.0276 4.66387,0 z m -2.84575,2.7667 q -1.42287,0.3162 -4.66386,2.9248 3.16193,-0.9486 4.66386,-2.9248 z"
       id="path19"
       aria-label="e" /><path
       style="font-size:51.7493px;font-family:Karumbi;-inkscape-font-specification:Karumbi;fill:#5e2223;stroke-width:6.59237;stroke-linecap:round;stroke-linejoin:round"
       d="m 417.67064,1055.2165 q 0,-0.079 -0.15822,-0.079 0,0 0.079,-0.079 0,-0.4746 0.079,-0.791 1.58217,-4.0346 2.61057,-7.99 1.02841,-4.0345 1.66127,-6.4078 0.63287,-2.4523 0.8702,-3.6389 0.23731,-1.1867 0.55375,-2.4524 0.87019,-3.0061 2.45236,-3.7972 1.58217,-0.8702 2.21503,1.1075 v 0.3165 q 0.39555,-0.712 1.58217,-0.8702 2.37325,-0.079 4.66737,-0.1582 2.37325,-0.079 5.14205,0.3955 2.76878,0.3955 4.82561,1.9777 2.05681,1.5031 2.84789,3.7181 1.74039,4.5092 -1.50306,10.0467 -4.35096,7.3571 -16.21719,9.9677 -3.24343,0.712 -5.37935,1.0284 -2.13594,0.3164 -3.40166,0.5537 -1.18662,0.2374 -2.45236,0.3956 -3.00612,0.3164 -4.7465,-0.712 -0.39554,-0.3955 -0.47465,-0.712 -0.079,-0.2373 -0.23732,-0.7119 0.079,-0.1583 0.079,-0.4747 0.31642,-1.3448 1.34483,-1.4239 1.10751,-0.079 1.58217,0.7911 0.47465,0.079 0.94929,0 0.55377,0 1.02841,0 z m 11.86624,-21.5174 q -1.26573,-0.079 -1.58217,-1.1075 -0.39554,1.5821 -1.42395,2.2941 -0.39553,1.2657 -0.71197,2.6106 -0.31644,1.2657 -0.94929,3.4807 -0.55377,2.136 -1.58218,6.0914 -0.94929,3.8763 -2.45235,7.6735 7.51529,-0.8702 10.75873,-1.8986 6.56598,-2.0568 9.88852,-6.0123 3.87632,-4.5091 2.84791,-8.7019 -0.47466,-1.8985 -2.29414,-3.0852 -1.8195,-1.2657 -4.35097,-1.4239 -2.61056,-0.1582 -8.14814,0.079 z"
       id="path20"
       aria-label="D" /></g></svg>
